<?xml version="1.0" encoding="UTF-8" standalone="no"?>
<!DOCTYPE svg PUBLIC "-//W3C//DTD SVG 1.1//EN" "http://www.w3.org/Graphics/SVG/1.1/DTD/svg11.dtd">
<svg width="100%" height="100%" viewBox="0 0 1000 1000" version="1.1" xmlns="http://www.w3.org/2000/svg"
    xmlns:xlink="http://www.w3.org/1999/xlink" xml:space="preserve" xmlns:serif="http://www.serif.com/"
    style="fill-rule:evenodd;clip-rule:evenodd;stroke-linejoin:round;stroke-miterlimit:2;">
    <g transform="matrix(1.00521,0,0,1.00384,-2.13992,0.383549)">
        <rect id="svg-background" style="fill:#ffffff;" x="2.129" y="-0.382" width="994.814" height="996.179" />
    </g>
    <g transform="matrix(2.53271,0,0,2.53271,120.24,133.265)">
        <path className="svg-icon" style="fill:#000000;"
            d="M265.081,133.419C257.131,107.187 239.196,90.249 213.215,84.435C206.453,82.92 199.834,82.153 193.543,82.153C177.666,82.153 165.623,87.024 156.909,92.751C156.946,89.828 156.802,83.595 155.448,74.713C156.571,74.787 158.312,74.87 160.544,74.87C171.612,74.87 192.219,72.834 205.859,59.196C224.47,40.584 221.405,8.747 221.265,7.4L220.595,0.938L214.133,0.268C213.87,0.241 211.443,0 207.652,0C196.583,0 175.977,2.037 162.34,15.675C153.934,24.08 149.957,35.179 148.128,44.952C144.14,33.008 138.372,19.375 130.011,4.545C127.842,0.698 122.961,-0.665 119.113,1.506C115.263,3.676 113.903,8.555 116.073,12.404C140.362,55.482 140.975,87.869 140.901,93.064C132.182,87.394 120.116,82.864 104.194,82.864L104.188,82.864C97.9,82.864 91.284,83.276 84.52,84.79C58.54,90.604 40.604,107.365 32.654,133.597C25.301,157.86 28.13,185.159 31.797,203.861C35.693,223.732 46.132,245.988 59.723,263.465C67.473,273.431 75.891,281.383 84.744,287.143C95.557,294.18 106.749,297.737 118.008,297.737C128.808,297.737 139.144,294.501 148.868,288.106C158.594,294.501 168.929,297.729 179.729,297.729C190.989,297.729 202.181,294.16 212.995,287.124C221.847,281.364 230.266,273.388 238.015,263.423C251.606,245.946 262.045,223.648 265.942,203.773C269.607,185.067 272.433,157.68 265.081,133.419ZM257.425,135.739C254.113,124.812 248.862,115.703 241.849,108.577C248.862,115.703 254.113,124.813 257.425,135.739Z" />
    </g>
</svg>