<?xml version="1.0" encoding="UTF-8" standalone="no"?>
<!DOCTYPE svg PUBLIC "-//W3C//DTD SVG 1.1//EN" "http://www.w3.org/Graphics/SVG/1.1/DTD/svg11.dtd">
<svg width="100%" height="100%" viewBox="0 0 1000 1000" version="1.1" xmlns="http://www.w3.org/2000/svg"
    xmlns:xlink="http://www.w3.org/1999/xlink" xml:space="preserve" xmlns:serif="http://www.serif.com/"
    style="fill-rule:evenodd;clip-rule:evenodd;stroke-linejoin:round;stroke-miterlimit:2;">
    <g transform="matrix(1.00521,0,0,1.00384,-2.13992,0.383549)">
        <rect id="svg-background" style="fill:#ffffff;" x="2.129" y="-0.382" width="994.814" height="996.179" />
    </g>
    <g transform="matrix(0.683593,0,0,0.683593,180.068,190.062)">
        <path className="svg-icon" style="fill:#000000;"
            d="M158.56,618.97L160.96,618.27C257.96,592.071 342.56,558.47 412.16,518.47C506.66,464.17 571.56,398.97 605.16,324.671L621.16,289.271L592.461,315.471C535.461,367.571 457.66,406.471 361.061,431.271C279.161,452.271 185.061,462.971 81.261,462.971C75.861,462.971 63.861,462.871 56.661,462.771L39.761,461.971C26.461,461.371 14.361,469.571 9.961,482.171L3.361,501.271C-0.539,512.572 2.661,525.171 11.561,533.271C18.961,539.971 26.461,546.471 26.461,546.471C26.461,546.471 82.461,594.971 156.061,618.171L158.56,618.97Z" />
        <path className="svg-icon" style="fill:#000000;"
            d="M811.86,163.17C782.76,149.77 754.961,147.77 740.961,147.77C739.16,147.77 737.461,147.77 736.061,147.87C732.861,136.67 716.661,69.77 705.361,22.97C700.161,1.47 674.261,-7.23 657.161,6.87L603.561,51.07C589.561,62.57 586.661,82.77 596.861,97.77C619.261,130.67 656.361,189.47 674.561,242.57C691.761,292.87 693.261,345.47 685.061,397.17C671.661,480.87 627.461,565.37 553.661,648.37C513.462,693.57 468.962,734.769 421.462,772.07C397.661,790.769 373.062,808.469 347.762,825.07C345.161,826.769 315.062,844.469 294.161,855.269C282.462,861.269 276.061,874.269 278.361,887.169L280.861,901.169C283.261,914.569 294.361,924.669 307.861,925.769C342.161,928.669 412.962,930.57 507.561,911.87C559.361,901.67 609.361,877.37 655.761,849.769C733.861,803.169 838.561,718.37 893.861,578.769C918.561,516.469 929.061,452.07 925.061,387.17C921.161,323.37 904.361,274.77 890.961,245.17C873.66,206.771 847.06,179.271 811.86,163.17Z" />
        <path className="svg-icon" style="fill:#000000;"
            d="M109.46,744.97C122.56,753.071 143.86,764.77 169.76,773.37C214.26,788.17 261.56,794.57 308.26,796.07L310.86,796.17L312.961,794.77C347.461,771.67 380.261,747.47 410.561,722.871C448.261,692.171 482.061,660.671 511.061,629.27C537.361,600.77 561.661,570.371 582.461,537.67C600.66,509.07 616.16,478.57 627.261,446.47C632.461,431.47 636.761,416.071 639.66,400.37C642.66,384.47 644.06,368.27 646.16,352.17C646.56,348.97 646.961,345.87 647.36,342.67L627.461,376.57C585.761,447.769 516.961,510.269 422.86,562.57C361.66,596.67 296.06,622.67 229.26,643.769C192.86,655.269 157.66,665.37 120.66,671.07C106.06,673.269 95.36,685.87 95.36,700.67L95.36,719.57C95.36,729.87 100.66,739.47 109.46,744.97Z" />
    </g>
</svg>