<?xml version="1.0" encoding="UTF-8" standalone="no"?>
<!DOCTYPE svg PUBLIC "-//W3C//DTD SVG 1.1//EN" "http://www.w3.org/Graphics/SVG/1.1/DTD/svg11.dtd">
<svg width="100%" height="100%" viewBox="0 0 1000 1000" version="1.1" xmlns="http://www.w3.org/2000/svg"
    xmlns:xlink="http://www.w3.org/1999/xlink" xml:space="preserve" xmlns:serif="http://www.serif.com/"
    style="fill-rule:evenodd;clip-rule:evenodd;stroke-linejoin:round;stroke-miterlimit:2;">
    <g transform="matrix(1.00521,0,0,1.00384,-2.13992,0.383549)">
        <rect id="svg-background" style="fill:#ffffff;" x="2.129" y="-0.382" width="994.814" height="996.179" />
    </g>
    <g id="XMLID_1498_" transform="matrix(1.39488,0,0,1.39488,153.254,159.917)">
        <path className="svg-icon" style="fill:#000000;"
            d="M470.561,450.144L294.97,136.62C294.213,135.268 293.25,134.041 292.117,132.983C290.444,131.422 256.472,100.947 199.56,137.547C182.43,107.175 162.673,62.011 162.417,14.918C162.372,6.662 155.664,0 147.419,0C147.391,0 147.363,0 147.336,0.001C139.052,0.046 132.373,6.798 132.417,15.082C132.708,68.542 154.154,118.305 172.994,151.782L55.033,33.82C49.176,27.962 39.678,27.962 33.82,33.82C27.962,39.678 27.962,49.175 33.82,55.033L151.781,172.994C118.304,154.154 68.542,132.708 15.082,132.417L14.999,132.417C6.753,132.417 0.045,139.079 0.001,147.335C-0.044,155.619 6.635,162.371 14.919,162.417C61.944,162.673 107.046,182.374 137.417,199.487C125.117,218.535 119.136,237.054 119.602,254.832C120.204,277.782 131.676,290.718 132.982,292.118C134.04,293.251 135.266,294.214 136.619,294.971L450.143,470.562C452.44,471.849 454.963,472.475 457.468,472.475C461.352,472.475 465.193,470.968 468.079,468.081C472.829,463.331 473.842,456.004 470.561,450.144Z" />
    </g>
</svg>