<?xml version="1.0" encoding="UTF-8" standalone="no"?>
<!DOCTYPE svg PUBLIC "-//W3C//DTD SVG 1.1//EN" "http://www.w3.org/Graphics/SVG/1.1/DTD/svg11.dtd">
<svg width="100%" height="100%" viewBox="0 0 1000 1000" version="1.1" xmlns="http://www.w3.org/2000/svg"
    xmlns:xlink="http://www.w3.org/1999/xlink" xml:space="preserve" xmlns:serif="http://www.serif.com/"
    style="fill-rule:evenodd;clip-rule:evenodd;stroke-linejoin:round;stroke-miterlimit:2;">
    <g transform="matrix(1.00521,0,0,1.00384,-2.13992,0.383549)">
        <rect id="svg-background" style="fill:#ffffff;" x="2.129" y="-0.382" width="994.814" height="996.179" />
    </g>
    <g transform="matrix(1,0,0,1,0,-9.99484)">
        <g id="XMLID_313_" transform="matrix(1.54705,0.519085,-0.519085,1.54705,281.653,45.5576)">
            <path className="svg-icon" style="fill:#000000;"
                d="M78.856,208.152C82.398,206.208 86.047,204.406 89.859,202.815C104.961,196.524 121.924,193.327 140.255,193.327C150.425,193.327 160.311,194.341 169.679,195.902L113.631,157.922L205.243,204.864C211.765,207.078 217.424,209.286 221.988,211.207C222.004,211.163 222.026,211.102 222.048,211.041C216.051,187.112 198.773,135.441 157.376,110.925C137.064,98.901 113.795,95.117 92.546,95.117C56.382,95.117 26.057,106.076 26.057,106.076C26.057,106.076 36.402,171.537 78.856,208.152Z" />
        </g>
        <g id="XMLID_314_" transform="matrix(1.54705,0.519085,-0.519085,1.54705,281.653,45.5576)">
            <path className="svg-icon" style="fill:#000000;"
                d="M107.582,281.036L168.314,251.261C182.223,237.652 195.989,227.713 204.802,221.987C188.566,216.101 165.094,209.617 140.248,209.617C125.589,209.617 110.456,211.869 96.12,217.85C37.249,242.373 13.643,320.159 13.643,320.159C13.643,320.159 54.731,341.904 100.218,341.904C107.237,341.904 114.366,341.348 121.461,340.148C121.805,336.507 122.211,332.86 122.909,329.189C127.78,303.54 141.103,281.689 156.117,264.208L107.582,281.036Z" />
        </g>
        <g id="XMLID_315_" transform="matrix(1.54705,0.519085,-0.519085,1.54705,281.653,45.5576)">
            <path className="svg-icon" style="fill:#000000;"
                d="M197.97,357.403L213.462,235.797C194.194,248.384 148.265,282.966 138.904,332.228C127,394.881 178.988,457.378 178.988,457.378C178.988,457.378 248.097,419.358 261.487,358.296C235.289,330.3 225.239,292.446 221.523,264.665L197.97,357.403Z" />
        </g>
        <g id="XMLID_316_" transform="matrix(1.54705,0.519085,-0.519085,1.54705,281.653,45.5576)">
            <path className="svg-icon" style="fill:#000000;"
                d="M363.337,260.049C361.22,258.135 358.91,256.574 356.671,254.862C344.039,258.676 330.378,260.717 315.726,260.717C300.323,260.717 285.731,258.517 272.828,255.665L331.302,315.684L248.043,248.842C243.361,247.274 239.164,245.772 235.958,244.495C237.369,270.189 244.582,321.643 278.969,352.892C309.54,380.664 354.051,385.559 381.63,385.559C396.635,385.559 406.625,384.109 406.625,384.109C406.625,384.109 410.529,302.924 363.337,260.049Z" />
        </g>
        <g id="XMLID_317_" transform="matrix(1.54705,0.519085,-0.519085,1.54705,281.653,45.5576)">
            <path className="svg-icon" style="fill:#000000;"
                d="M351.492,171.612L256.495,223.119C252.285,226.377 248.644,228.928 245.807,230.805C260.257,236.231 286.761,244.436 315.727,244.436C332.263,244.436 349.503,241.733 365.537,234.265C423.349,207.348 443.735,128.647 443.735,128.647C443.735,128.647 405.462,110.37 362.422,110.37C346.201,110.378 329.326,113.035 313.549,120.173C312.182,154.175 297.659,180.364 281.73,199.062L351.492,171.612Z" />
        </g>
        <g id="XMLID_318_" transform="matrix(1.54705,0.519085,-0.519085,1.54705,281.653,45.5576)">
            <path className="svg-icon" style="fill:#000000;"
                d="M229.579,180.53L234.383,101.76L238.758,173.338C238.758,173.338 238.765,173.33 238.765,173.322L238.525,181.181L237.85,215.934C283.832,184.091 344.771,99.134 234.383,0C234.383,0 180.624,44.398 172.719,101.647C202.384,122.313 219.836,154.618 229.579,180.53Z" />
        </g>
    </g>
</svg>