<?xml version="1.0" encoding="UTF-8" standalone="no"?>
<!DOCTYPE svg PUBLIC "-//W3C//DTD SVG 1.1//EN" "http://www.w3.org/Graphics/SVG/1.1/DTD/svg11.dtd">
<svg width="100%" height="100%" viewBox="0 0 1000 1000" version="1.1" xmlns="http://www.w3.org/2000/svg"
    xmlns:xlink="http://www.w3.org/1999/xlink" xml:space="preserve" xmlns:serif="http://www.serif.com/"
    style="fill-rule:evenodd;clip-rule:evenodd;stroke-linejoin:round;stroke-miterlimit:2;">
    <g transform="matrix(1.00521,0,0,1.00384,-2.13992,0.383549)">
        <rect id="svg-background" style="fill:#ffffff;" x="2.129" y="-0.382" width="994.814" height="996.179" />
    </g>
    <g transform="matrix(-0.0017779,0.0793383,0.0793383,0.0017779,222.582,166.551)">
        <path className="svg-icon" style="fill:#000000;"
            d="M112,7673C67,7655 33,7503 19,7252C-7,6784 68,5977 206,5240C493,3715 999,2431 1655,1565C2262,763 3113,233 4065,65C4299,24 4483,9 4755,9C5203,9 5601,70 5960,195C6236,291 6524,481 6781,735L6896,849L7066,801C7476,683 7882,610 8125,610C8233,610 8256,618 8311,677C8382,753 8423,852 8440,983C8463,1172 8406,1323 8294,1368C8278,1374 8171,1395 8056,1415C7580,1495 7206,1603 7133,1682C7112,1705 7112,1706 7128,1815C7153,1994 7150,2449 7122,2660C6996,3594 6581,4479 5942,5175C5632,5513 5294,5756 4900,5924C4518,6086 4193,6163 3250,6315C2793,6389 2654,6414 2391,6471C1502,6666 852,6997 283,7544C205,7619 137,7680 133,7679C129,7679 119,7676 112,7673ZM2210,4269C3449,3178 4857,2357 6393,1829L6520,1785L6520,1744C6520,1681 6484,1555 6441,1466C6400,1382 6338,1300 6315,1300C6293,1300 5985,1405 5835,1463C5008,1785 4155,2319 3310,3045C2711,3560 2049,4250 1616,4810C1567,4873 1524,4930 1519,4935C1515,4941 1631,4826 1778,4680C1925,4534 2119,4349 2210,4269Z" />
    </g>
</svg>