<?xml version="1.0" encoding="UTF-8" standalone="no"?>
<!DOCTYPE svg PUBLIC "-//W3C//DTD SVG 1.1//EN" "http://www.w3.org/Graphics/SVG/1.1/DTD/svg11.dtd">
<svg width="100%" height="100%" viewBox="0 0 1000 1000" version="1.1" xmlns="http://www.w3.org/2000/svg"
    xmlns:xlink="http://www.w3.org/1999/xlink" xml:space="preserve" xmlns:serif="http://www.serif.com/"
    style="fill-rule:evenodd;clip-rule:evenodd;stroke-linejoin:round;stroke-miterlimit:2;">
    <g transform="matrix(1.00521,0,0,1.00384,-2.13992,0.383549)">
        <rect id="svg-background" style="fill:#ffffff;" x="2.129" y="-0.382" width="994.814" height="996.179" />
    </g>
    <g transform="matrix(1.23569,0,0,1.23569,216.622,197.685)">
        <path className="svg-icon" style="fill:#000000;"
            d="M355.4,298.7C339.5,275.8 331.7,248.5 331.7,220.5L331.7,220.1C331.7,161.4 296.3,113.2 252,108.9C251.2,119.4 251.2,128.7 251.6,135C252,140.4 247.7,145.1 242.3,145.1L241.9,145.1C236.5,145.1 232.2,140.8 232.2,135.8C232.2,134.6 231.8,124.3 232.6,110.1C236.8,109.4 249.8,108.6 252.1,109C254,80.6 260.3,42.9 277.4,26.6C281.3,22.7 281.7,16.5 277.8,12.6C273.9,8.7 267.7,8.3 263.8,12.2C247.5,27.8 239.3,55 235.4,79.9C224.8,33.9 184,0 135,0C135,55.2 178.2,99.9 232.6,103C232.6,105.2 232.3,107.5 232.2,109.7C190.7,118 159.4,164.2 159.4,220.1L159.4,220.5C159.4,248.5 151.2,275.7 135.7,298.7C120.9,318.5 112.8,342.6 112.8,368.3C112.8,438.3 171.9,490 245,490C318.1,490 377.2,438.3 377.2,368.3C377.2,342.6 369,318.5 355.4,298.7Z" />
    </g>
</svg>